<?xml version="1.0" encoding="UTF-8"?>
<svg id="Layer_2" data-name="Layer 2" xmlns="http://www.w3.org/2000/svg" viewBox="0 0 452.61 81.04">
  <defs>
    <style>
      .cls-1 {
        fill: #fff;
      }

      .cls-2 {
        fill: #a7f46e;
      }
    </style>
  </defs>
  <g id="Layer_1-2" data-name="Layer 1">
    <g>
      <g>
        <path class="cls-2" d="M19.07,35.43c0,11.24,6.93,18.27,17.36,18.27h27.7c5.12,0,9.84-3.41,9.84-9.94,0-5.62-3.51-8.63-8.63-8.63h-21.28l11.74-17.57h10.64c15.66,0,26.6,9.44,26.6,25.6,0,17.16-12.45,28.1-28.1,28.1h-30.11C13.95,71.27,0,57.31,0,35.93S13.85,0,34.73,0h32.32l-11.24,17.57h-19.37c-10.44,0-17.36,6.93-17.36,17.87Z"/>
        <path class="cls-1" d="M19.07,35.43c0,11.24,6.93,18.27,17.36,18.27h27.7c5.12,0,9.84-3.41,9.84-9.94,0-5.62-3.51-8.63-8.63-8.63h-21.28l11.74-17.57h10.64c15.66,0,26.6,9.44,26.6,25.6,0,17.16-12.45,28.1-28.1,28.1h-30.11C13.95,71.27,0,57.31,0,35.93S13.85,0,34.73,0h32.32l-11.24,17.57h-19.37c-10.44,0-17.36,6.93-17.36,17.87Z"/>
      </g>
      <g>
        <g>
          <path class="cls-2" d="M151.79,32.34h26.7v32.24h-8.23l-1.6-7.89c-4.31,6.16-10.8,9.23-19.48,9.23s-15.53-2.85-20.74-8.56c-5.21-5.71-7.81-13.26-7.81-22.67s2.66-16.99,7.98-22.75c5.32-5.65,12.51-8.48,21.58-8.48,7.5,0,13.74,1.9,18.72,5.71,4.93,3.81,7.89,8.98,8.9,15.53h-11.67c-.84-3.53-2.67-6.3-5.5-8.31-2.83-2.02-6.28-3.02-10.37-3.02-5.48,0-9.82,1.9-13.01,5.71-3.19,3.81-4.79,9.01-4.79,15.62s1.62,11.81,4.87,15.62c3.25,3.81,7.7,5.71,13.35,5.71,4.48,0,8.31-1.34,11.5-4.03,3.19-2.69,4.93-6.18,5.21-10.49h-15.62v-9.15Z"/>
          <path class="cls-2" d="M207.12,65.59c-6.6,0-11.92-2.07-15.95-6.21-4.09-4.09-6.13-9.57-6.13-16.46s2.04-12.37,6.13-16.46c4.03-4.14,9.35-6.21,15.95-6.21s11.92,2.04,15.95,6.13c4.03,4.09,6.04,9.6,6.04,16.54s-2.01,12.31-6.04,16.46-9.35,6.21-15.95,6.21ZM215.39,53.21c1.99-2.43,2.98-5.86,2.98-10.28s-.99-7.85-2.98-10.28c-1.99-2.43-4.74-3.65-8.27-3.65s-6.28,1.2-8.27,3.61-2.98,5.85-2.98,10.33.99,7.92,2.98,10.33c1.99,2.41,4.74,3.61,8.27,3.61s6.28-1.22,8.27-3.65Z"/>
          <path class="cls-2" d="M235.75,64.58V4.81h10.58v59.77h-10.58Z"/>
          <path class="cls-2" d="M274.37,12.95c-3.64,0-5.46,1.74-5.46,5.21v3.11h8.9v8.06h-8.9v35.26h-10.49V29.32h-6.72v-8.06h6.72v-3.27c0-4.2,1.18-7.49,3.53-9.86,2.35-2.38,5.9-3.57,10.66-3.57,2.13,0,3.95.08,5.46.25v8.14h-3.69Z"/>
          <path class="cls-2" d="M308.62,57.36c-5.48-5.76-8.23-13.32-8.23-22.67s2.74-16.9,8.23-22.67c5.48-5.71,12.71-8.56,21.66-8.56s16.18,2.85,21.66,8.56c5.43,5.65,8.14,13.21,8.14,22.67s-2.71,17.01-8.14,22.67c-5.48,5.71-12.71,8.56-21.66,8.56s-16.18-2.85-21.66-8.56ZM330.28,55.93c5.48,0,9.88-1.9,13.18-5.71,3.25-3.75,4.87-8.93,4.87-15.53s-1.62-11.78-4.87-15.53c-3.3-3.81-7.7-5.71-13.18-5.71s-9.79,1.9-13.1,5.71c-3.3,3.81-4.95,8.98-4.95,15.53s1.65,11.73,4.95,15.53c3.3,3.81,7.67,5.71,13.1,5.71Z"/>
          <path class="cls-2" d="M405,26.38c3.47,4.14,5.21,9.65,5.21,16.54s-1.74,12.31-5.21,16.46c-3.53,4.14-8.26,6.21-14.19,6.21s-10.35-2.21-13.43-6.63v22.08h-10.58V21.26h10.16v6.21c3.13-4.81,7.75-7.22,13.85-7.22s10.66,2.04,14.19,6.13ZM388.3,56.86c3.47,0,6.21-1.26,8.23-3.78,1.96-2.46,2.94-5.96,2.94-10.49s-.97-7.79-2.9-10.12c-1.93-2.32-4.69-3.48-8.27-3.48s-6.27,1.2-8.23,3.61-2.94,5.85-2.94,10.33,1.01,7.98,3.02,10.33c1.9,2.41,4.62,3.61,8.14,3.61Z"/>
          <path class="cls-2" d="M413.57,50.81h10.33c.28,2.69,1.16,4.59,2.64,5.71,1.48,1.12,3.82,1.68,7.01,1.68,5.71,0,8.56-1.74,8.56-5.21,0-1.57-.62-2.77-1.85-3.61-1.23-.84-3.44-1.54-6.63-2.1l-4.95-.84c-9.46-1.57-14.19-5.93-14.19-13.1,0-4.09,1.57-7.29,4.7-9.61s7.56-3.48,13.26-3.48c12.37,0,18.75,4.9,19.14,14.69h-9.99c-.11-2.57-.92-4.41-2.43-5.5s-3.75-1.64-6.72-1.64c-5.04,0-7.56,1.68-7.56,5.04,0,1.46.56,2.59,1.68,3.4,1.12.81,2.97,1.44,5.54,1.89l5.46.84c5.26.95,9.08,2.46,11.46,4.53,2.38,2.07,3.57,4.95,3.57,8.65,0,4.37-1.68,7.72-5.04,10.07-3.36,2.35-8.09,3.53-14.19,3.53-12.65,0-19.25-4.98-19.81-14.94Z"/>
        </g>
        <g>
          <path class="cls-1" d="M151.79,32.34h26.7v32.24h-8.23l-1.6-7.89c-4.31,6.16-10.8,9.23-19.48,9.23s-15.53-2.85-20.74-8.56c-5.21-5.71-7.81-13.26-7.81-22.67s2.66-16.99,7.98-22.75c5.32-5.65,12.51-8.48,21.58-8.48,7.5,0,13.74,1.9,18.72,5.71,4.93,3.81,7.89,8.98,8.9,15.53h-11.67c-.84-3.53-2.67-6.3-5.5-8.31-2.83-2.02-6.28-3.02-10.37-3.02-5.48,0-9.82,1.9-13.01,5.71-3.19,3.81-4.79,9.01-4.79,15.62s1.62,11.81,4.87,15.62c3.25,3.81,7.7,5.71,13.35,5.71,4.48,0,8.31-1.34,11.5-4.03,3.19-2.69,4.93-6.18,5.21-10.49h-15.62v-9.15Z"/>
          <path class="cls-1" d="M207.12,65.59c-6.6,0-11.92-2.07-15.95-6.21-4.09-4.09-6.13-9.57-6.13-16.46s2.04-12.37,6.13-16.46c4.03-4.14,9.35-6.21,15.95-6.21s11.92,2.04,15.95,6.13c4.03,4.09,6.04,9.6,6.04,16.54s-2.01,12.31-6.04,16.46-9.35,6.21-15.95,6.21ZM215.39,53.21c1.99-2.43,2.98-5.86,2.98-10.28s-.99-7.85-2.98-10.28c-1.99-2.43-4.74-3.65-8.27-3.65s-6.28,1.2-8.27,3.61-2.98,5.85-2.98,10.33.99,7.92,2.98,10.33c1.99,2.41,4.74,3.61,8.27,3.61s6.28-1.22,8.27-3.65Z"/>
          <path class="cls-1" d="M235.75,64.58V4.81h10.58v59.77h-10.58Z"/>
          <path class="cls-1" d="M274.37,12.95c-3.64,0-5.46,1.74-5.46,5.21v3.11h8.9v8.06h-8.9v35.26h-10.49V29.32h-6.72v-8.06h6.72v-3.27c0-4.2,1.18-7.49,3.53-9.86,2.35-2.38,5.9-3.57,10.66-3.57,2.13,0,3.95.08,5.46.25v8.14h-3.69Z"/>
          <path class="cls-1" d="M308.62,57.36c-5.48-5.76-8.23-13.32-8.23-22.67s2.74-16.9,8.23-22.67c5.48-5.71,12.71-8.56,21.66-8.56s16.18,2.85,21.66,8.56c5.43,5.65,8.14,13.21,8.14,22.67s-2.71,17.01-8.14,22.67c-5.48,5.71-12.71,8.56-21.66,8.56s-16.18-2.85-21.66-8.56ZM330.28,55.93c5.48,0,9.88-1.9,13.18-5.71,3.25-3.75,4.87-8.93,4.87-15.53s-1.62-11.78-4.87-15.53c-3.3-3.81-7.7-5.71-13.18-5.71s-9.79,1.9-13.1,5.71c-3.3,3.81-4.95,8.98-4.95,15.53s1.65,11.73,4.95,15.53c3.3,3.81,7.67,5.71,13.1,5.71Z"/>
          <path class="cls-1" d="M405,26.38c3.47,4.14,5.21,9.65,5.21,16.54s-1.74,12.31-5.21,16.46c-3.53,4.14-8.26,6.21-14.19,6.21s-10.35-2.21-13.43-6.63v22.08h-10.58V21.26h10.16v6.21c3.13-4.81,7.75-7.22,13.85-7.22s10.66,2.04,14.19,6.13ZM388.3,56.86c3.47,0,6.21-1.26,8.23-3.78,1.96-2.46,2.94-5.96,2.94-10.49s-.97-7.79-2.9-10.12c-1.93-2.32-4.69-3.48-8.27-3.48s-6.27,1.2-8.23,3.61-2.94,5.85-2.94,10.33,1.01,7.98,3.02,10.33c1.9,2.41,4.62,3.61,8.14,3.61Z"/>
          <path class="cls-1" d="M413.57,50.81h10.33c.28,2.69,1.16,4.59,2.64,5.71,1.48,1.12,3.82,1.68,7.01,1.68,5.71,0,8.56-1.74,8.56-5.21,0-1.57-.62-2.77-1.85-3.61-1.23-.84-3.44-1.54-6.63-2.1l-4.95-.84c-9.46-1.57-14.19-5.93-14.19-13.1,0-4.09,1.57-7.29,4.7-9.61s7.56-3.48,13.26-3.48c12.37,0,18.75,4.9,19.14,14.69h-9.99c-.11-2.57-.92-4.41-2.43-5.5s-3.75-1.64-6.72-1.64c-5.04,0-7.56,1.68-7.56,5.04,0,1.46.56,2.59,1.68,3.4,1.12.81,2.97,1.44,5.54,1.89l5.46.84c5.26.95,9.08,2.46,11.46,4.53,2.38,2.07,3.57,4.95,3.57,8.65,0,4.37-1.68,7.72-5.04,10.07-3.36,2.35-8.09,3.53-14.19,3.53-12.65,0-19.25-4.98-19.81-14.94Z"/>
        </g>
      </g>
    </g>
  </g>
</svg>