<?xml version="1.0" encoding="UTF-8"?>
<svg id="Layer_2" data-name="Layer 2" xmlns="http://www.w3.org/2000/svg" viewBox="0 0 93.05 71.27">
  <defs>
    <style>
      .cls-1 {
        fill: #a7f46e;
      }
    </style>
  </defs>
  <g id="Layer_1-2" data-name="Layer 1">
    <g>
      <path class="cls-1" d="M19.07,35.43c0,11.24,6.93,18.27,17.36,18.27h27.7c5.12,0,9.84-3.41,9.84-9.94,0-5.62-3.51-8.63-8.63-8.63h-21.28l11.74-17.57h10.64c15.66,0,26.6,9.44,26.6,25.6,0,17.16-12.45,28.1-28.1,28.1h-30.11C13.95,71.27,0,57.31,0,35.93S13.85,0,34.73,0h32.32l-11.24,17.57h-19.37c-10.44,0-17.36,6.93-17.36,17.87Z"/>
      <path d="M19.07,35.43c0,11.24,6.93,18.27,17.36,18.27h27.7c5.12,0,9.84-3.41,9.84-9.94,0-5.62-3.51-8.63-8.63-8.63h-21.28l11.74-17.57h10.64c15.66,0,26.6,9.44,26.6,25.6,0,17.16-12.45,28.1-28.1,28.1h-30.11C13.95,71.27,0,57.31,0,35.93S13.85,0,34.73,0h32.32l-11.24,17.57h-19.37c-10.44,0-17.36,6.93-17.36,17.87Z"/>
    </g>
  </g>
</svg>